<?xml version="1.0" encoding="utf-8"?>
<!-- Generator: Adobe Illustrator 15.0.0, SVG Export Plug-In . SVG Version: 6.00 Build 0)  -->
<!DOCTYPE svg PUBLIC "-//W3C//DTD SVG 1.1//EN" "http://www.w3.org/Graphics/SVG/1.1/DTD/svg11.dtd">
<svg version="1.1" xmlns="http://www.w3.org/2000/svg" xmlns:xlink="http://www.w3.org/1999/xlink" x="0px" y="0px" width="900px"
	 height="900px" viewBox="0 0 900 900" enable-background="new 0 0 900 900" xml:space="preserve">
<g id="intersection">
	<rect x="-0.091" y="292" fill="#808080" width="900" height="322"/>
	<rect x="288.909" fill="#808080" width="322" height="900"/>
	<polyline fill="none" stroke="#B3B3B3" stroke-width="16" stroke-linejoin="round" stroke-miterlimit="10" points="-0.091,292 
		288.909,292 288.909,0 	"/>
	<polyline fill="none" stroke="#B3B3B3" stroke-width="16" stroke-linejoin="round" stroke-miterlimit="10" points="899.909,608 
		610.909,608 610.909,900 	"/>
	<polyline fill="none" stroke="#B3B3B3" stroke-width="16" stroke-linejoin="round" stroke-miterlimit="10" points="-0.091,608 
		288.909,608 288.909,900 	"/>
	<polyline fill="none" stroke="#B3B3B3" stroke-width="16" stroke-linejoin="round" stroke-miterlimit="10" points="899.909,292 
		610.909,292 610.909,0 	"/>
	<g id="pedestrian-islands">
		<g id="pi-left">
			<g>
				<path fill="#B3B3B3" d="M274.909,394h-157c-12,0-21.372,9.364-21.372,20.998c0,11.638,9.372,21.002,21.372,21.002h157
					c12,0,21.372-9.364,21.372-20.999C296.281,403.364,286.909,394,274.909,394z"/>
				<rect x="180.909" y="390" fill="#808080" width="90" height="50"/>
			</g>
		</g>
		<g id="pi-right">
			<g>
				<path fill="#B3B3B3" d="M622.633,503.796l157.276-0.786c12,0,21.371-9.369,21.371-21.003c0-11.638-9.371-21.007-21.371-21.007
					h-157c-12,0-21.371,9.369-21.371,21.004C601.538,493.641,610.909,503.01,622.633,503.796z"/>
				<rect x="628.909" y="457" fill="#808080" width="90" height="50"/>
			</g>
		</g>
		<g id="pi-top">
			<g>
				<path fill="#B3B3B3" d="M502.909,278V121c0-12-9.864-21.371-21.498-21.371c-11.638,0-21.502,9.371-21.502,21.371v157
					c0,12,9.864,21.371,21.499,21.371C493.045,299.371,502.909,290,502.909,278z"/>
				<rect x="456.909" y="182" fill="#808080" width="50" height="90"/>
			</g>
		</g>
		<g id="pi-bottom">
			<g>
				<path fill="#B3B3B3" d="M396.909,620v157c0,12,9.864,21.371,21.498,21.371c11.638,0,21.502-9.371,21.502-21.371V620
					c0-12-9.864-21.371-21.499-21.371C406.773,598.629,396.909,608,396.909,620z"/>
				<rect x="392.909" y="626" fill="#808080" width="50" height="90"/>
			</g>
		</g>
	</g>
</g>
<g id="lane-marking">
	
		<line fill="none" stroke="#FFFFFF" stroke-width="8" stroke-linejoin="round" stroke-miterlimit="10" x1="22.909" y1="450" x2="58.909" y2="450"/>
	
		<line fill="none" stroke="#FFFFFF" stroke-width="8" stroke-linejoin="round" stroke-miterlimit="10" x1="22.909" y1="503" x2="58.909" y2="503"/>
	
		<line fill="none" stroke="#FFFFFF" stroke-width="8" stroke-linejoin="round" stroke-miterlimit="10" x1="22.909" y1="555" x2="58.909" y2="555"/>
	
		<line fill="none" stroke="#FFFFFF" stroke-width="8" stroke-linejoin="round" stroke-miterlimit="10" x1="66.909" y1="450" x2="145.909" y2="450"/>
	<g>
		<rect x="134.909" y="446" fill="#FFFFFF" width="13" height="152"/>
	</g>
	
		<line fill="none" stroke="#FFFFFF" stroke-width="8" stroke-linejoin="round" stroke-miterlimit="10" x1="141.909" y1="503" x2="66.909" y2="503"/>
	
		<line fill="none" stroke="#FFFFFF" stroke-width="8" stroke-linejoin="round" stroke-miterlimit="10" x1="141.909" y1="555" x2="66.909" y2="555"/>
	
		<line fill="none" stroke="#FFFFFF" stroke-width="8" stroke-linejoin="round" stroke-miterlimit="10" x1="882.909" y1="450" x2="846.909" y2="450"/>
	
		<line fill="none" stroke="#FFFFFF" stroke-width="8" stroke-linejoin="round" stroke-miterlimit="10" x1="882.909" y1="397" x2="846.909" y2="397"/>
	
		<line fill="none" stroke="#FFFFFF" stroke-width="8" stroke-linejoin="round" stroke-miterlimit="10" x1="882.909" y1="345" x2="846.909" y2="345"/>
	
		<line fill="none" stroke="#FFFFFF" stroke-width="8" stroke-linejoin="round" stroke-miterlimit="10" x1="838.909" y1="450" x2="759.909" y2="450"/>
	<g>
		<rect x="757.909" y="302" fill="#FFFFFF" width="13" height="152"/>
	</g>
	
		<line fill="none" stroke="#FFFFFF" stroke-width="8" stroke-linejoin="round" stroke-miterlimit="10" x1="763.909" y1="397" x2="838.909" y2="397"/>
	
		<line fill="none" stroke="#FFFFFF" stroke-width="8" stroke-linejoin="round" stroke-miterlimit="10" x1="763.909" y1="345" x2="838.909" y2="345"/>
	
		<line fill="none" stroke="#FFFFFF" stroke-width="8" stroke-linejoin="round" stroke-miterlimit="10" x1="449.909" y1="28" x2="449.909" y2="64"/>
	
		<line fill="none" stroke="#FFFFFF" stroke-width="8" stroke-linejoin="round" stroke-miterlimit="10" x1="396.909" y1="28" x2="396.909" y2="64"/>
	
		<line fill="none" stroke="#FFFFFF" stroke-width="8" stroke-linejoin="round" stroke-miterlimit="10" x1="344.909" y1="28" x2="344.909" y2="64"/>
	
		<line fill="none" stroke="#FFFFFF" stroke-width="8" stroke-linejoin="round" stroke-miterlimit="10" x1="449.909" y1="72" x2="449.909" y2="151"/>
	<g>
		<rect x="301.909" y="140" fill="#FFFFFF" width="152" height="13"/>
	</g>
	
		<line fill="none" stroke="#FFFFFF" stroke-width="8" stroke-linejoin="round" stroke-miterlimit="10" x1="396.909" y1="147" x2="396.909" y2="72"/>
	
		<line fill="none" stroke="#FFFFFF" stroke-width="8" stroke-linejoin="round" stroke-miterlimit="10" x1="344.909" y1="147" x2="344.909" y2="72"/>
	
		<line fill="none" stroke="#FFFFFF" stroke-width="8" stroke-linejoin="round" stroke-miterlimit="10" x1="449.909" y1="881" x2="449.909" y2="845"/>
	
		<line fill="none" stroke="#FFFFFF" stroke-width="8" stroke-linejoin="round" stroke-miterlimit="10" x1="502.909" y1="881" x2="502.909" y2="845"/>
	
		<line fill="none" stroke="#FFFFFF" stroke-width="8" stroke-linejoin="round" stroke-miterlimit="10" x1="554.909" y1="881" x2="554.909" y2="845"/>
	
		<line fill="none" stroke="#FFFFFF" stroke-width="8" stroke-linejoin="round" stroke-miterlimit="10" x1="449.909" y1="837" x2="449.909" y2="758"/>
	<g>
		<rect x="445.909" y="756" fill="#FFFFFF" width="152" height="13"/>
	</g>
	
		<line fill="none" stroke="#FFFFFF" stroke-width="8" stroke-linejoin="round" stroke-miterlimit="10" x1="502.909" y1="762" x2="502.909" y2="837"/>
	
		<line fill="none" stroke="#FFFFFF" stroke-width="8" stroke-linejoin="round" stroke-miterlimit="10" x1="554.909" y1="762" x2="554.909" y2="837"/>
	<g id="lm-top">
		<g id="top-left-arrow">
			<g>
				<polyline fill="none" stroke="#FFFFFF" stroke-width="6" stroke-linejoin="round" points="415.909,22 415.909,96 427.909,96 
									"/>
				<g>
					<polygon fill="#FFFFFF" points="425.538,77 437.734,96.499 425.538,116 425.909,116 425.909,77 					"/>
				</g>
			</g>
		</g>
		<g id="top-right-arrow">
			<g>
				<polyline fill="none" stroke="#FFFFFF" stroke-width="6" stroke-linejoin="round" points="326.909,22 326.909,96 314.909,96 
									"/>
				<g>
					<polygon fill="#FFFFFF" points="317.635,116 305.439,96.501 317.635,77 317.909,77 317.909,116 					"/>
				</g>
			</g>
		</g>
		<g id="top-straight-arrow">
			<g>
				<line fill="none" stroke="#FFFFFF" stroke-width="6" stroke-linejoin="round" x1="368.909" y1="22" x2="368.909" y2="87"/>
				<g>
					<polygon fill="#FFFFFF" points="360.899,81 369.609,113.522 378.331,81 					"/>
				</g>
			</g>
		</g>
		<g id="lm-top-pedestrian">
			<g>
				<g>
					<line fill="none" stroke="#FFFFFF" stroke-width="8" stroke-linejoin="round" x1="301.909" y1="190" x2="311.909" y2="190"/>
					
						<line fill="none" stroke="#FFFFFF" stroke-width="8" stroke-linejoin="round" stroke-dasharray="21,21" x1="332.909" y1="190" x2="576.909" y2="190"/>
					<line fill="none" stroke="#FFFFFF" stroke-width="8" stroke-linejoin="round" x1="587.909" y1="190" x2="597.909" y2="190"/>
				</g>
			</g>
			<g>
				<g>
					<line fill="none" stroke="#FFFFFF" stroke-width="8" stroke-linejoin="round" x1="301.909" y1="264" x2="311.909" y2="264"/>
					
						<line fill="none" stroke="#FFFFFF" stroke-width="8" stroke-linejoin="round" stroke-dasharray="21,21" x1="332.909" y1="264" x2="576.909" y2="264"/>
					<line fill="none" stroke="#FFFFFF" stroke-width="8" stroke-linejoin="round" x1="587.909" y1="264" x2="597.909" y2="264"/>
				</g>
			</g>
		</g>
	</g>
	<g id="lm-bottom">
		<g id="bottom-left-arrow">
			<g>
				<polyline fill="none" stroke="#FFFFFF" stroke-width="6" stroke-linejoin="round" points="483.909,887 483.909,813 470.909,813 
									"/>
				<g>
					<polygon fill="#FFFFFF" points="473.788,832 461.591,812.502 473.788,793 473.909,793 473.909,832 					"/>
				</g>
			</g>
		</g>
		<g id="bottom-right-arrow">
			<g>
				<polyline fill="none" stroke="#FFFFFF" stroke-width="6" stroke-linejoin="round" points="571.909,887 571.909,813 584.909,813 
									"/>
				<g>
					<polygon fill="#FFFFFF" points="581.69,793 593.887,812.498 581.69,832 581.909,832 581.909,793 					"/>
				</g>
			</g>
		</g>
		<g id="bottom-straight-arrow">
			<g>
				<line fill="none" stroke="#FFFFFF" stroke-width="6" stroke-linejoin="round" x1="529.909" y1="887" x2="529.909" y2="822"/>
				<g>
					<polygon fill="#FFFFFF" points="538.427,828 529.717,795.478 520.995,828 					"/>
				</g>
			</g>
		</g>
		<g id="lm-bottom-pedestrian">
			<g>
				<g>
					<line fill="none" stroke="#FFFFFF" stroke-width="8" stroke-linejoin="round" x1="597.909" y1="708" x2="587.909" y2="708"/>
					
						<line fill="none" stroke="#FFFFFF" stroke-width="8" stroke-linejoin="round" stroke-dasharray="21,21" x1="566.909" y1="708" x2="321.909" y2="708"/>
					<line fill="none" stroke="#FFFFFF" stroke-width="8" stroke-linejoin="round" x1="311.909" y1="708" x2="301.909" y2="708"/>
				</g>
			</g>
			<g>
				<g>
					<line fill="none" stroke="#FFFFFF" stroke-width="8" stroke-linejoin="round" x1="597.909" y1="634" x2="587.909" y2="634"/>
					
						<line fill="none" stroke="#FFFFFF" stroke-width="8" stroke-linejoin="round" stroke-dasharray="21,21" x1="566.909" y1="634" x2="321.909" y2="634"/>
					<line fill="none" stroke="#FFFFFF" stroke-width="8" stroke-linejoin="round" x1="311.909" y1="634" x2="301.909" y2="634"/>
				</g>
			</g>
		</g>
	</g>
	<g id="lm-left">
		<g id="left-left-arrow">
			<g>
				<polyline fill="none" stroke="#FFFFFF" stroke-width="6" stroke-linejoin="round" points="15.909,484 90.909,484 90.909,471 
									"/>
				<g>
					<polygon fill="#FFFFFF" points="71.909,474.124 90.908,461.928 109.909,474.124 109.909,474 71.909,474 					"/>
				</g>
			</g>
		</g>
		<g id="left-right-arrow">
			<g>
				<polyline fill="none" stroke="#FFFFFF" stroke-width="6" stroke-linejoin="round" points="15.909,572 90.909,572 90.909,585 
									"/>
				<g>
					<polygon fill="#FFFFFF" points="110.909,582.027 91.411,594.224 71.909,582.027 71.909,582 110.909,582 					"/>
				</g>
			</g>
		</g>
		<g id="left-straight-arrow">
			<g>
				<line fill="none" stroke="#FFFFFF" stroke-width="6" stroke-linejoin="round" x1="15.909" y1="530" x2="81.909" y2="530"/>
				<g>
					<polygon fill="#FFFFFF" points="75.909,538.764 108.432,530.054 75.909,521.332 					"/>
				</g>
			</g>
		</g>
		<g id="lm-left-pedestrian">
			<g>
				<g>
					<line fill="none" stroke="#FFFFFF" stroke-width="8" stroke-linejoin="round" x1="188.909" y1="598" x2="188.909" y2="588"/>
					
						<line fill="none" stroke="#FFFFFF" stroke-width="8" stroke-linejoin="round" stroke-dasharray="21,21" x1="188.909" y1="567" x2="188.909" y2="322"/>
					<line fill="none" stroke="#FFFFFF" stroke-width="8" stroke-linejoin="round" x1="188.909" y1="312" x2="188.909" y2="302"/>
				</g>
			</g>
			<g>
				<g>
					<line fill="none" stroke="#FFFFFF" stroke-width="8" stroke-linejoin="round" x1="262.909" y1="598" x2="262.909" y2="588"/>
					
						<line fill="none" stroke="#FFFFFF" stroke-width="8" stroke-linejoin="round" stroke-dasharray="21,21" x1="262.909" y1="567" x2="262.909" y2="322"/>
					<line fill="none" stroke="#FFFFFF" stroke-width="8" stroke-linejoin="round" x1="262.909" y1="312" x2="262.909" y2="302"/>
				</g>
			</g>
		</g>
	</g>
	<g id="lm-right">
		<g id="right-left-arrow">
			<g>
				<polyline fill="none" stroke="#FFFFFF" stroke-width="6" stroke-linejoin="round" points="888.909,416 813.909,416 813.909,429 
									"/>
				<g>
					<polygon fill="#FFFFFF" points="833.909,425.875 814.411,438.071 794.909,425.875 794.909,426 833.909,426 					"/>
				</g>
			</g>
		</g>
		<g id="right-right-arrow">
			<g>
				<polyline fill="none" stroke="#FFFFFF" stroke-width="6" stroke-linejoin="round" points="888.909,328 813.909,328 813.909,315 
									"/>
				<g>
					<polygon fill="#FFFFFF" points="794.909,317.972 813.907,305.776 832.909,317.972 832.909,318 794.909,318 					"/>
				</g>
			</g>
		</g>
		<g id="right-straight-arrow">
			<g>
				<line fill="none" stroke="#FFFFFF" stroke-width="6" stroke-linejoin="round" x1="888.909" y1="370" x2="823.909" y2="370"/>
				<g>
					<polygon fill="#FFFFFF" points="829.909,361.236 797.387,369.946 829.909,378.667 					"/>
				</g>
			</g>
		</g>
		<g id="lm-right-pedestrian">
			<g>
				<g>
					<line fill="none" stroke="#FFFFFF" stroke-width="8" stroke-linejoin="round" x1="711.909" y1="302" x2="711.909" y2="312"/>
					
						<line fill="none" stroke="#FFFFFF" stroke-width="8" stroke-linejoin="round" stroke-dasharray="21,21" x1="711.909" y1="333" x2="711.909" y2="578"/>
					<line fill="none" stroke="#FFFFFF" stroke-width="8" stroke-linejoin="round" x1="711.909" y1="588" x2="711.909" y2="598"/>
				</g>
			</g>
			<g>
				<g>
					<line fill="none" stroke="#FFFFFF" stroke-width="8" stroke-linejoin="round" x1="637.909" y1="302" x2="637.909" y2="312"/>
					
						<line fill="none" stroke="#FFFFFF" stroke-width="8" stroke-linejoin="round" stroke-dasharray="21,21" x1="637.909" y1="333" x2="637.909" y2="578"/>
					<line fill="none" stroke="#FFFFFF" stroke-width="8" stroke-linejoin="round" x1="637.909" y1="588" x2="637.909" y2="598"/>
				</g>
			</g>
		</g>
	</g>
</g>
<g id="traffic-lights">
	<g id="A-left-left">
		<g>
			<rect x="154.909" y="456" fill="#1A1A1A" width="15" height="36"/>
			<circle fill="#FF0000" cx="162.409" cy="463.334" r="4.777"/>
			<circle fill="#FFFF00" cx="162.409" cy="474.334" r="4.777"/>
			<circle fill="#00FF00" cx="162.409" cy="485.334" r="4.777"/>
		</g>
	</g>
	<g id="B-left-straight">
		<g>
			<rect x="154.909" y="510" fill="#1A1A1A" width="15" height="36"/>
			<circle fill="#FF0000" cx="162.409" cy="517.334" r="4.777"/>
			<circle fill="#FFFF00" cx="162.409" cy="528.334" r="4.777"/>
			<circle fill="#00FF00" cx="162.409" cy="539.334" r="4.777"/>
		</g>
	</g>
	<g id="C-left-right">
		<g>
			<rect x="154.909" y="561" fill="#1A1A1A" width="15" height="36"/>
			<circle fill="#FF0000" cx="162.409" cy="568.334" r="4.777"/>
			<circle fill="#FFFF00" cx="162.409" cy="579.334" r="4.777"/>
			<circle fill="#00FF00" cx="162.409" cy="590.334" r="4.777"/>
		</g>
	</g>
	<g id="D-left-pedestrian">
		<g id="D-outter">
			<g id="outter_4_">
				<rect x="214.909" y="582" fill="#1A1A1A" width="26" height="15"/>
				<circle fill="#FF0000" cx="234.075" cy="589" r="4.777"/>
				<circle fill="#00FF00" cx="223.075" cy="589" r="4.777"/>
			</g>
			<g id="outter_5_">
				<rect x="214.909" y="304" fill="#1A1A1A" width="26" height="15"/>
				<circle fill="#FF0000" cx="234.075" cy="311" r="4.777"/>
				<circle fill="#00FF00" cx="223.075" cy="311" r="4.777"/>
			</g>
		</g>
		<g id="D-inner">
			<g id="inner_3_">
				<rect x="214.909" y="421" fill="#1A1A1A" width="26" height="15"/>
				<circle fill="#FF0000" cx="234.075" cy="428" r="4.777"/>
				<circle fill="#00FF00" cx="223.075" cy="428" r="4.777"/>
			</g>
			<g id="inner_4_">
				<rect x="214.909" y="395" fill="#1A1A1A" width="26" height="15"/>
				<circle fill="#FF0000" cx="234.075" cy="402" r="4.777"/>
				<circle fill="#00FF00" cx="223.075" cy="402" r="4.777"/>
			</g>
		</g>
	</g>
	<g id="E-bottom-left">
		<g>
			<rect x="455.909" y="734" fill="#1A1A1A" width="36" height="15"/>
			<circle fill="#FF0000" cx="462.997" cy="741.254" r="4.777"/>
			<circle fill="#FFFF00" cx="473.997" cy="741.254" r="4.777"/>
			<circle fill="#00FF00" cx="484.997" cy="741.254" r="4.777"/>
		</g>
	</g>
	<g id="F-bottom-straight">
		<g>
			<rect x="509.909" y="734" fill="#1A1A1A" width="36" height="15"/>
			<circle fill="#FF0000" cx="516.997" cy="741.254" r="4.777"/>
			<circle fill="#FFFF00" cx="527.997" cy="741.254" r="4.777"/>
			<circle fill="#00FF00" cx="538.997" cy="741.254" r="4.777"/>
		</g>
	</g>
	<g id="G-bottom-right">
		<g>
			<rect x="560.909" y="734" fill="#1A1A1A" width="36" height="15"/>
			<circle fill="#FF0000" cx="567.997" cy="741.254" r="4.777"/>
			<circle fill="#FFFF00" cx="578.997" cy="741.254" r="4.777"/>
			<circle fill="#00FF00" cx="589.997" cy="741.254" r="4.777"/>
		</g>
	</g>
	<g id="H-bottom-pedestrian">
		<g id="H-outter">
			<g id="outter_6_">
				<rect x="581.909" y="658" fill="#1A1A1A" width="15" height="26"/>
				<circle fill="#FF0000" cx="589.663" cy="665.588" r="4.777"/>
				<circle fill="#00FF00" cx="589.663" cy="676.588" r="4.777"/>
			</g>
			<g id="outter_7_">
				<rect x="303.909" y="658" fill="#1A1A1A" width="15" height="26"/>
				<circle fill="#FF0000" cx="311.663" cy="665.588" r="4.777"/>
				<circle fill="#00FF00" cx="311.663" cy="676.588" r="4.777"/>
			</g>
		</g>
		<g id="H-inner">
			<g id="inner_6_">
				<rect x="424.909" y="658" fill="#1A1A1A" width="15" height="26"/>
				<circle fill="#FF0000" cx="432.663" cy="665.588" r="4.777"/>
				<circle fill="#00FF00" cx="432.663" cy="676.588" r="4.777"/>
			</g>
			<g id="inner_5_">
				<rect x="396.909" y="658" fill="#1A1A1A" width="15" height="26"/>
				<circle fill="#FF0000" cx="404.663" cy="665.588" r="4.777"/>
				<circle fill="#00FF00" cx="404.663" cy="676.588" r="4.777"/>
			</g>
		</g>
	</g>
	<g id="I-right-left">
		<g>
			<rect x="735.909" y="408" fill="#1A1A1A" width="15" height="36"/>
			<circle fill="#FF0000" cx="742.917" cy="436.666" r="4.777"/>
			<circle fill="#FFFF00" cx="742.917" cy="425.666" r="4.777"/>
			<circle fill="#00FF00" cx="742.917" cy="414.666" r="4.777"/>
		</g>
	</g>
	<g id="J-right-straight">
		<g>
			<rect x="735.909" y="354" fill="#1A1A1A" width="15" height="36"/>
			<circle fill="#FF0000" cx="742.917" cy="382.666" r="4.777"/>
			<circle fill="#FFFF00" cx="742.917" cy="371.666" r="4.777"/>
			<circle fill="#00FF00" cx="742.917" cy="360.666" r="4.777"/>
		</g>
	</g>
	<g id="K-right-right">
		<g>
			<rect x="735.909" y="303" fill="#1A1A1A" width="15" height="36"/>
			<circle fill="#FF0000" cx="742.917" cy="331.666" r="4.777"/>
			<circle fill="#FFFF00" cx="742.917" cy="320.666" r="4.777"/>
			<circle fill="#00FF00" cx="742.917" cy="309.666" r="4.777"/>
		</g>
	</g>
	<g id="L-right-pedestrian">
		<g id="L-outter">
			<g id="outter_2_">
				<rect x="664.909" y="303" fill="#1A1A1A" width="26" height="15"/>
				<circle fill="#FF0000" cx="671.251" cy="311" r="4.777"/>
				<circle fill="#00FF00" cx="682.251" cy="311" r="4.777"/>
			</g>
			<g id="outter_3_">
				<rect x="664.909" y="581" fill="#1A1A1A" width="26" height="15"/>
				<circle fill="#FF0000" cx="671.251" cy="589" r="4.777"/>
				<circle fill="#00FF00" cx="682.251" cy="589" r="4.777"/>
			</g>
		</g>
		<g id="L-inner">
			<g id="inner_1_">
				<rect x="664.909" y="461" fill="#1A1A1A" width="26" height="15"/>
				<circle fill="#FF0000" cx="671.251" cy="469" r="4.777"/>
				<circle fill="#00FF00" cx="682.251" cy="469" r="4.777"/>
			</g>
			<g id="inner_2_">
				<rect x="664.909" y="490" fill="#1A1A1A" width="26" height="15"/>
				<circle fill="#FF0000" cx="671.251" cy="498" r="4.777"/>
				<circle fill="#00FF00" cx="682.251" cy="498" r="4.777"/>
			</g>
		</g>
	</g>
	<g id="M-top-left">
		<g>
			<rect x="407.909" y="160" fill="#1A1A1A" width="36" height="15"/>
			<circle fill="#FF0000" cx="436.329" cy="167.746" r="4.777"/>
			<circle fill="#FFFF00" cx="425.329" cy="167.746" r="4.777"/>
			<circle fill="#00FF00" cx="414.329" cy="167.746" r="4.777"/>
		</g>
	</g>
	<g id="N-top-straight">
		<g>
			<rect x="353.909" y="160" fill="#1A1A1A" width="36" height="15"/>
			<circle fill="#FF0000" cx="382.329" cy="167.746" r="4.777"/>
			<circle fill="#FFFF00" cx="371.329" cy="167.746" r="4.777"/>
			<circle fill="#00FF00" cx="360.329" cy="167.746" r="4.777"/>
		</g>
	</g>
	<g id="O-top-right">
		<g>
			<rect x="302.909" y="160" fill="#1A1A1A" width="36" height="15"/>
			<circle fill="#FF0000" cx="331.329" cy="167.746" r="4.777"/>
			<circle fill="#FFFF00" cx="320.329" cy="167.746" r="4.777"/>
			<circle fill="#00FF00" cx="309.329" cy="167.746" r="4.777"/>
		</g>
	</g>
	<g id="P-top-pedestrian">
		<g id="P-inner">
			<g id="inner_7_">
				<rect x="460.909" y="214" fill="#1A1A1A" width="15" height="26"/>
				<circle fill="#FF0000" cx="468.663" cy="233.412" r="4.777"/>
				<circle fill="#00FF00" cx="468.663" cy="222.412" r="4.777"/>
			</g>
			<g id="inner">
				<rect x="487.909" y="214" fill="#1A1A1A" width="15" height="26"/>
				<circle fill="#FF0000" cx="495.663" cy="233.412" r="4.777"/>
				<circle fill="#00FF00" cx="495.663" cy="222.412" r="4.777"/>
			</g>
		</g>
		<g id="P-outter">
			<g id="outter_1_">
				<rect x="302.909" y="214" fill="#1A1A1A" width="15" height="26"/>
				<circle fill="#FF0000" cx="310.663" cy="233.412" r="4.777"/>
				<circle fill="#00FF00" cx="310.663" cy="222.412" r="4.777"/>
			</g>
			<g id="outter">
				<rect x="580.909" y="214" fill="#1A1A1A" width="15" height="26"/>
				<circle fill="#FF0000" cx="588.663" cy="233.412" r="4.777"/>
				<circle fill="#00FF00" cx="588.663" cy="222.412" r="4.777"/>
			</g>
		</g>
	</g>
</g>
<g id="traffic-lanes">
	<g id="tl-top_1_">
		<path id="top-right" fill="none" stroke="#00FF00" stroke-width="7" stroke-linejoin="round" stroke-miterlimit="10" d="
			M326.409,180v114.412c0,0,4.438,77.088-66.175,77.088s-247.325,0-247.325,0"/>
		
			<line id="top-straight" fill="none" stroke="#00FF00" stroke-width="7" stroke-linejoin="round" stroke-miterlimit="10" x1="372.409" y1="888" x2="372.409" y2="180"/>
		<path id="top-left" fill="none" stroke="#00FF00" stroke-width="7" stroke-linejoin="round" stroke-miterlimit="10" d="
			M885.159,529.584c0,0-142.004,0.29-211.564,0.29c-135.979,0-247.186-122.375-247.186-235.578c0-70.614,0-113.296,0-113.296"/>
	</g>
	<g id="tl-left_1_">
		<path id="left-right" fill="none" stroke="#00FF00" stroke-width="7" stroke-linejoin="round" stroke-miterlimit="10" d="
			M180.909,573.5h113.941c0,0,77.559-4.467,77.559,66.146s0,248.354,0,248.354"/>
		
			<line id="left-straight" fill="none" stroke="#00FF00" stroke-width="7" stroke-linejoin="round" stroke-miterlimit="10" x1="180.909" y1="530.5" x2="883.909" y2="530.5"/>
		<path id="left-left" fill="none" stroke="#00FF00" stroke-width="7" stroke-linejoin="round" stroke-miterlimit="10" d="
			M529.243,11.249c0,0,0.166,141.755,0.166,211.315c0,135.979-122.5,246.936-235.703,246.936c-70.613,0-112.797,0-112.797,0"/>
	</g>
	<g id="tl-right_1_">
		<path id="right-right" fill="none" stroke="#00FF00" stroke-width="7" stroke-linejoin="round" stroke-miterlimit="10" d="
			M723.909,325.5h-115c0,0-78.5,4.525-78.5-66.088s0-247.412,0-247.412"/>
		
			<line id="right-straight" fill="none" stroke="#00FF00" stroke-width="7" stroke-linejoin="round" stroke-miterlimit="10" x1="12.909" y1="371.5" x2="723.909" y2="371.5"/>
		<path id="right-left" fill="none" stroke="#00FF00" stroke-width="7" stroke-linejoin="round" stroke-miterlimit="10" d="
			M375.825,887.625c0,0-0.041-141.691-0.041-211.252c0-135.979,122.625-246.873,235.828-246.873c70.613,0,112.297,0,112.297,0"/>
	</g>
	<g id="tl-bottom">
		<path id="bottom-right" fill="none" stroke="#00FF00" stroke-width="7" stroke-linejoin="round" stroke-miterlimit="10" d="
			M571.409,720V607.529c0,0-4.496-78.029,66.117-78.029s247.383,0,247.383,0"/>
		<path id="bottom-left" fill="none" stroke="#00FF00" stroke-width="7" stroke-linejoin="round" stroke-miterlimit="10" d="
			M12.909,371.666c0,0,141.879-0.166,211.439-0.166c135.98,0,247.061,122.5,247.061,235.703c0,70.613,0,112.797,0,112.797"/>
		
			<line id="bottom-straight" fill="none" stroke="#00FF00" stroke-width="7" stroke-linejoin="round" stroke-miterlimit="10" x1="529.409" y1="720" x2="529.409" y2="12"/>
	</g>
	<g id="tl-pedestrians">
		<g id="tl-pedestrian-top">
			<g id="tl-pedestrian-top-long">
				
					<line fill="none" stroke="#FF00FF" stroke-width="7" stroke-linejoin="round" stroke-miterlimit="10" x1="323.356" y1="219.157" x2="456.909" y2="219.047"/>
				
					<line fill="none" stroke="#FF00FF" stroke-width="7" stroke-linejoin="round" stroke-miterlimit="10" x1="323.356" y1="235.157" x2="456.909" y2="235.047"/>
			</g>
			<g id="tl-pedestrian-top-short">
				
					<line fill="none" stroke="#FF00FF" stroke-width="7" stroke-linejoin="round" stroke-miterlimit="10" x1="507.909" y1="235.5" x2="576.909" y2="235.5"/>
				
					<line fill="none" stroke="#FF00FF" stroke-width="7" stroke-linejoin="round" stroke-miterlimit="10" x1="507.909" y1="219.5" x2="576.909" y2="219.5"/>
			</g>
			<g id="tl-pedestrian-top-complete">
				
					<line fill="none" stroke="#FF00FF" stroke-width="7" stroke-linejoin="round" stroke-miterlimit="10" x1="323.909" y1="235.5" x2="576.909" y2="235.5"/>
				
					<line fill="none" stroke="#FF00FF" stroke-width="7" stroke-linejoin="round" stroke-miterlimit="10" x1="323.909" y1="219.5" x2="576.909" y2="219.5"/>
			</g>
		</g>
		<g id="tl-pedestrian-left">
			<g id="tl-pedestrian-left-short">
				
					<line fill="none" stroke="#FF00FF" stroke-width="7" stroke-linejoin="round" stroke-miterlimit="10" x1="219.359" y1="391.238" x2="219.304" y2="325"/>
				
					<line fill="none" stroke="#FF00FF" stroke-width="7" stroke-linejoin="round" stroke-miterlimit="10" x1="235.359" y1="391.238" x2="235.304" y2="325"/>
			</g>
			<g id="tl-pedestrian-left-long">
				
					<line fill="none" stroke="#FF00FF" stroke-width="7" stroke-linejoin="round" stroke-miterlimit="10" x1="235.409" y1="579" x2="235.409" y2="439"/>
				
					<line fill="none" stroke="#FF00FF" stroke-width="7" stroke-linejoin="round" stroke-miterlimit="10" x1="219.409" y1="579" x2="219.409" y2="439"/>
			</g>
			<g id="tl-pedestrian-left-complete">
				
					<line fill="none" stroke="#FF00FF" stroke-width="7" stroke-linejoin="round" stroke-miterlimit="10" x1="235.409" y1="579" x2="235.409" y2="324"/>
				
					<line fill="none" stroke="#FF00FF" stroke-width="7" stroke-linejoin="round" stroke-miterlimit="10" x1="219.409" y1="579" x2="219.409" y2="324"/>
			</g>
		</g>
		<g id="tl-pedestrian-right">
			<g id="tl-pedestrian-right-short">
				
					<line fill="none" stroke="#FF00FF" stroke-width="7" stroke-linejoin="round" stroke-miterlimit="10" x1="686.409" y1="578" x2="686.409" y2="509"/>
				
					<line fill="none" stroke="#FF00FF" stroke-width="7" stroke-linejoin="round" stroke-miterlimit="10" x1="670.409" y1="578" x2="670.409" y2="509"/>
			</g>
			<g id="tl-pedestrian-right-long">
				
					<line fill="none" stroke="#FF00FF" stroke-width="7" stroke-linejoin="round" stroke-miterlimit="10" x1="670.414" y1="457" x2="670.304" y2="325"/>
				
					<line fill="none" stroke="#FF00FF" stroke-width="7" stroke-linejoin="round" stroke-miterlimit="10" x1="686.414" y1="457" x2="686.304" y2="325"/>
			</g>
			<g id="tl-pedestrian-right-complete">
				
					<line fill="none" stroke="#FF00FF" stroke-width="7" stroke-linejoin="round" stroke-miterlimit="10" x1="670.514" y1="577.991" x2="670.304" y2="325"/>
				
					<line fill="none" stroke="#FF00FF" stroke-width="7" stroke-linejoin="round" stroke-miterlimit="10" x1="686.514" y1="578.003" x2="686.304" y2="325.012"/>
			</g>
		</g>
		<g id="tl-pedestrian-bottom">
			<g id="tl-pedestrian-bottom-short">
				
					<line id="short" fill="none" stroke="#FF00FF" stroke-width="7" stroke-linejoin="round" stroke-miterlimit="10" x1="322.909" y1="680.5" x2="392.909" y2="680.5"/>
				
					<line id="short_1_" fill="none" stroke="#FF00FF" stroke-width="7" stroke-linejoin="round" stroke-miterlimit="10" x1="323.356" y1="664.157" x2="392.909" y2="664.1"/>
			</g>
			<g id="tl-pedestrian-bottom-long">
				
					<line id="long" fill="none" stroke="#FF00FF" stroke-width="7" stroke-linejoin="round" stroke-miterlimit="10" x1="442.909" y1="680.5" x2="576.909" y2="680.5"/>
				
					<line id="long_1_" fill="none" stroke="#FF00FF" stroke-width="7" stroke-linejoin="round" stroke-miterlimit="10" x1="442.908" y1="664.21" x2="576.909" y2="664.1"/>
			</g>
			<g id="tl-pedestrian-bottom-complete">
				
					<line id="long_3_" fill="none" stroke="#FF00FF" stroke-width="7" stroke-linejoin="round" stroke-miterlimit="10" x1="323.909" y1="680.5" x2="576.909" y2="680.5"/>
				
					<line id="long_2_" fill="none" stroke="#FF00FF" stroke-width="7" stroke-linejoin="round" stroke-miterlimit="10" x1="323.765" y1="664.21" x2="576.909" y2="664.1"/>
			</g>
		</g>
	</g>
</g>
</svg>
